<svg xmlns="http://www.w3.org/2000/svg" viewBox="0 0 60 60">
  <circle cx="30" cy="30" r="29" fill="#141414" stroke="#d35400" stroke-width="1.5" />
  <path d="M 30,8 C 32,14 36,17 41,15 C 45,21 46,28 44,35 C 41,44 32,48 24,45 C 17,42 13,34 15,26 C 16,21 19,17 22,14 C 21,19 24,22 26,20 C 28,18 27,12 30,8 Z" fill="#e65100" />
  <path d="M 23,28 L 23,40 M 27.5,24 L 27.5,40 M 32.5,24 L 32.5,40 M 37,28 L 37,40" stroke="#141414" stroke-width="2" stroke-linecap="round" fill="none" />
  <path d="M 21,39 C 21,44 39,44 39,39" stroke="#141414" stroke-width="2" fill="none" />
  <line x1="30" y1="43" x2="30" y2="52" stroke="#141414" stroke-width="2.5" stroke-linecap="round" />
</svg>